<svg width="22" height="22" viewBox="0 0 22 22" fill="none" xmlns="http://www.w3.org/2000/svg">
<path d="M11 16.6768C13.5349 16.6768 15.5898 14.6219 15.5898 12.0871C15.5898 9.55222 13.5349 7.49731 11 7.49731C8.46515 7.49731 6.41025 9.55222 6.41025 12.0871C6.41025 14.6219 8.46515 16.6768 11 16.6768Z" stroke="white" stroke-linecap="round" stroke-linejoin="round"/>
<path d="M11 14.9857C12.6008 14.9857 13.8985 13.688 13.8985 12.0872C13.8985 10.4864 12.6008 9.18872 11 9.18872C9.3992 9.18872 8.1015 10.4864 8.1015 12.0872C8.1015 13.688 9.3992 14.9857 11 14.9857Z" stroke="white" stroke-linecap="round" stroke-linejoin="round"/>
<path d="M19.0208 5.56499H15.1447L14.3 3.66291C14.2639 3.58195 14.2052 3.51319 14.1308 3.46495C14.0565 3.41671 13.9697 3.39106 13.8811 3.39111H8.11983C8.03115 3.3911 7.94438 3.41682 7.87002 3.46514C7.79566 3.51346 7.73692 3.58232 7.70092 3.66336L6.85575 5.56499H2.97917C2.73605 5.56499 2.50289 5.66157 2.33099 5.83347C2.15908 6.00538 2.0625 6.23854 2.0625 6.48166V17.6925C2.0625 17.9356 2.15908 18.1688 2.33099 18.3407C2.50289 18.5126 2.73605 18.6092 2.97917 18.6092H19.0208C19.2639 18.6092 19.4971 18.5126 19.669 18.3407C19.8409 18.1688 19.9375 17.9356 19.9375 17.6925V6.48166C19.9375 6.23854 19.8409 6.00538 19.669 5.83347C19.4971 5.66157 19.2639 5.56499 19.0208 5.56499V5.56499Z" stroke="white" stroke-linecap="round" stroke-linejoin="round"/>
</svg>
