<svg width="12" height="12" viewBox="0 0 12 12" fill="none" xmlns="http://www.w3.org/2000/svg">
<path d="M9.85714 3.42857L10.5399 4.71429L12 4.89171L10.9286 5.85729L11.1429 7.28571L9.85714 6.48214L8.57143 7.28571L8.78571 5.85729L7.71429 4.89171L9.21429 4.71429L9.85714 3.42857ZM8.57143 12H7.71429V9.85714C7.71361 9.28903 7.48762 8.74438 7.08591 8.34267C6.68419 7.94095 6.13954 7.71497 5.57143 7.71429H3C2.43189 7.71497 1.88724 7.94095 1.48552 8.34267C1.08381 8.74438 0.857823 9.28903 0.857143 9.85714V12H0V9.85714C0.000907441 9.06177 0.317269 8.29924 0.879682 7.73682C1.44209 7.17441 2.20463 6.85805 3 6.85714H5.57143C6.3668 6.85805 7.12933 7.17441 7.69175 7.73682C8.25416 8.29924 8.57052 9.06177 8.57143 9.85714V12ZM4.28571 0.857143C4.70953 0.857143 5.12383 0.982819 5.47622 1.21828C5.82861 1.45374 6.10327 1.78841 6.26546 2.17996C6.42764 2.57152 6.47008 3.00238 6.3874 3.41805C6.30471 3.83372 6.10063 4.21554 5.80094 4.51523C5.50126 4.81491 5.11944 5.019 4.70376 5.10168C4.28809 5.18437 3.85723 5.14193 3.46568 4.97974C3.07412 4.81755 2.73945 4.5429 2.50399 4.19051C2.26853 3.83812 2.14286 3.42382 2.14286 3C2.14286 2.43168 2.36862 1.88663 2.77049 1.48477C3.17235 1.08291 3.71739 0.857143 4.28571 0.857143ZM4.28571 0C3.69237 0 3.11235 0.175947 2.619 0.505591C2.12566 0.835235 1.74114 1.30377 1.51408 1.85195C1.28701 2.40013 1.2276 3.00333 1.34336 3.58527C1.45911 4.16721 1.74484 4.70176 2.16439 5.12132C2.58395 5.54088 3.1185 5.8266 3.70044 5.94236C4.28239 6.05811 4.88559 5.9987 5.43376 5.77164C5.98194 5.54458 6.45048 5.16006 6.78012 4.66671C7.10977 4.17336 7.28571 3.59334 7.28571 3C7.28571 2.20435 6.96964 1.44129 6.40703 0.87868C5.84443 0.31607 5.08136 0 4.28571 0Z" fill="#828282"/>
</svg>
