<svg width="23" height="22" viewBox="0 0 23 22" fill="none" xmlns="http://www.w3.org/2000/svg">
<path d="M6.62237 13.7828C5.3571 11.8832 4.84068 9.59449 5.17642 7.37452C5.51216 5.15455 6.67531 3.16704 8.43317 1.80962C10.191 0.452198 12.4139 -0.175027 14.6572 0.0534305C16.9004 0.281888 18.9986 1.34918 20.5319 3.04177C22.0652 4.73437 22.9205 6.92745 22.9268 9.18225C22.9331 11.4371 22.0899 13.5873 20.5658 15.2028C19.0417 16.8183 16.9492 17.7799 14.707 17.8952C12.4647 18.0106 10.2379 17.2711 8.47226 15.8248L8.47363 15.8249C8.43054 15.8773 8.3848 15.9267 8.33362 15.9745L2.86539 20.9315C2.59907 21.1731 2.24494 21.296 1.88091 21.2732C1.51688 21.2503 1.17278 21.0836 0.924295 20.8097C0.675812 20.5358 0.543301 20.1771 0.55592 19.8126C0.568537 19.448 0.725249 19.1075 0.991577 18.8659L6.45981 13.9088C6.51061 13.8622 6.56497 13.8196 6.62242 13.7814L6.62237 13.7828ZM6.45303 8.47815C6.41833 9.47066 6.57919 10.4658 6.92642 11.4067C7.27365 12.3476 7.80046 13.2159 8.47677 13.9619C9.15308 14.708 9.96564 15.3172 10.8681 15.7548C11.7705 16.1924 12.7451 16.4499 13.7362 16.5124C14.7274 16.575 15.7157 16.4414 16.6446 16.1194C17.5736 15.7974 18.4251 15.2932 19.1505 14.6356C19.8759 13.9781 20.461 13.18 20.8723 12.2869C21.2837 11.3939 21.5133 10.4235 21.548 9.43094C21.6181 7.42646 20.8901 5.45389 19.5243 3.94717C18.1584 2.44046 16.2665 1.52301 14.2648 1.39666C12.2631 1.27031 10.3155 1.94542 8.85051 3.27345C7.38552 4.60149 6.52313 6.47367 6.45303 8.47815Z" fill="white"/>
</svg>
