<svg width="14" height="14" viewBox="0 0 14 14" fill="none" xmlns="http://www.w3.org/2000/svg">
<path d="M7.875 4.8125H11.375V5.6875H7.875V4.8125ZM2.625 8.3125H6.125V9.1875H2.625V8.3125ZM4.375 7C4.02888 7 3.69054 6.89736 3.40275 6.70507C3.11497 6.51278 2.89066 6.23947 2.75821 5.9197C2.62576 5.59993 2.5911 5.24806 2.65863 4.90859C2.72615 4.56913 2.89282 4.25731 3.13756 4.01256C3.38231 3.76782 3.69413 3.60115 4.03359 3.53363C4.37306 3.4661 4.72493 3.50076 5.0447 3.63321C5.36447 3.76566 5.63778 3.98997 5.83007 4.27775C6.02237 4.56554 6.125 4.90388 6.125 5.25C6.12442 5.71395 5.93986 6.15874 5.6118 6.4868C5.28373 6.81486 4.83895 6.99942 4.375 7ZM4.375 4.375C4.20194 4.375 4.03277 4.42632 3.88888 4.52246C3.74498 4.61861 3.63283 4.75527 3.56661 4.91515C3.50038 5.07504 3.48305 5.25097 3.51681 5.4207C3.55058 5.59044 3.63391 5.74635 3.75628 5.86872C3.87865 5.99109 4.03456 6.07443 4.2043 6.10819C4.37403 6.14195 4.54996 6.12462 4.70985 6.0584C4.86973 5.99217 5.00639 5.88002 5.10254 5.73612C5.19868 5.59223 5.25 5.42306 5.25 5.25C5.24977 5.01801 5.15751 4.79558 4.99346 4.63154C4.82942 4.46749 4.60699 4.37523 4.375 4.375ZM9.625 10.5C9.27888 10.5 8.94054 10.3974 8.65275 10.2051C8.36497 10.0128 8.14067 9.73947 8.00821 9.4197C7.87576 9.09993 7.8411 8.74806 7.90863 8.40859C7.97615 8.06913 8.14282 7.75731 8.38756 7.51256C8.63231 7.26782 8.94413 7.10115 9.28359 7.03363C9.62306 6.9661 9.97493 7.00076 10.2947 7.13321C10.6145 7.26566 10.8878 7.48997 11.0801 7.77775C11.2724 8.06554 11.375 8.40388 11.375 8.75C11.3744 9.21395 11.1899 9.65873 10.8618 9.9868C10.5337 10.3149 10.089 10.4994 9.625 10.5ZM9.625 7.875C9.45194 7.875 9.28277 7.92632 9.13888 8.02246C8.99498 8.11861 8.88283 8.25527 8.81661 8.41515C8.75038 8.57504 8.73305 8.75097 8.76681 8.9207C8.80058 9.09044 8.88391 9.24635 9.00628 9.36872C9.12865 9.49109 9.28456 9.57443 9.4543 9.60819C9.62403 9.64195 9.79996 9.62462 9.95985 9.55839C10.1197 9.49217 10.2564 9.38002 10.3525 9.23612C10.4487 9.09223 10.5 8.92306 10.5 8.75C10.4998 8.51801 10.4075 8.29558 10.2435 8.13154C10.0794 7.96749 9.85699 7.87523 9.625 7.875Z" fill="#828282"/>
<path d="M12.25 13.125H1.75C1.51801 13.1248 1.29558 13.0325 1.13154 12.8685C0.967493 12.7044 0.875232 12.482 0.875 12.25V1.75C0.875232 1.51801 0.967493 1.29558 1.13154 1.13154C1.29558 0.967493 1.51801 0.875232 1.75 0.875H12.25C12.482 0.875232 12.7044 0.967493 12.8685 1.13154C13.0325 1.29558 13.1248 1.51801 13.125 1.75V12.25C13.1248 12.482 13.0325 12.7044 12.8685 12.8685C12.7044 13.0325 12.482 13.1248 12.25 13.125ZM1.75 1.75V12.25H12.25V1.75H1.75Z" fill="#828282"/>
</svg>
