<svg width="22" height="23" viewBox="0 0 22 23" fill="none" xmlns="http://www.w3.org/2000/svg">
<path fill-rule="evenodd" clip-rule="evenodd" d="M11 4.12206L10.0142 3.01656C7.70005 0.421557 3.4568 1.31706 1.92505 4.57956C1.2623 5.99256 1.07255 7.98456 2.07355 10.5001H0.591296C-2.3347 1.95456 6.31817 -2.74494 10.758 1.71456C10.8405 1.79706 10.9217 1.88256 11 1.97106C11.0776 1.88264 11.1584 1.79757 11.242 1.71606C15.6833 -2.74494 24.3348 1.95456 21.4088 10.5001H19.9265C20.9275 7.98456 20.7378 5.99256 20.075 4.57956C18.5433 1.31706 14.3 0.420057 11.9859 3.01506L11 4.12206ZM3.04155 15.0001H4.84967C6.31542 16.7746 8.3188 18.6871 11 20.6926C13.6799 18.6871 15.6847 16.7746 17.1504 15.0001H18.9585C17.2192 17.3491 14.641 19.8751 11 22.5001C7.35905 19.8751 4.78092 17.3491 3.04155 15.0001ZM14.388 4.97106C14.3347 4.82584 14.2411 4.70245 14.1203 4.61816C13.9994 4.53388 13.8575 4.49292 13.7143 4.50102C13.5711 4.50912 13.4337 4.56588 13.3216 4.66334C13.2094 4.7608 13.128 4.8941 13.0887 5.04456L10.8914 13.4341L8.88805 7.97106C8.84139 7.84433 8.7639 7.7339 8.66393 7.65169C8.56397 7.56948 8.44532 7.51861 8.3208 7.50456C8.19627 7.49051 8.0706 7.51383 7.95732 7.57198C7.84405 7.63013 7.74749 7.72093 7.67805 7.83456L5.13155 12.0001H0.687546C0.50521 12.0001 0.330342 12.0791 0.201411 12.2197C0.0724793 12.3604 4.64483e-05 12.5511 4.64483e-05 12.7501C4.64483e-05 12.949 0.0724793 13.1397 0.201411 13.2804C0.330342 13.421 0.50521 13.5001 0.687546 13.5001H5.50005C5.61327 13.5 5.72472 13.4694 5.82451 13.4111C5.92429 13.3527 6.00932 13.2684 6.07205 13.1656L8.09742 9.85206L10.362 16.0291C10.4154 16.1743 10.509 16.2977 10.6298 16.382C10.7507 16.4662 10.8926 16.5072 11.0358 16.4991C11.179 16.491 11.3163 16.4342 11.4285 16.3368C11.5407 16.2393 11.6221 16.106 11.6614 15.9556L13.8587 7.56606L15.862 13.0291C15.9131 13.1681 16.0012 13.2873 16.1149 13.3712C16.2286 13.4551 16.3627 13.5 16.5 13.5001H21.3125C21.4949 13.5001 21.6698 13.421 21.7987 13.2804C21.9276 13.1397 22 12.949 22 12.7501C22 12.5511 21.9276 12.3604 21.7987 12.2197C21.6698 12.0791 21.4949 12.0001 21.3125 12.0001H16.9648L14.388 4.97106Z" fill="white"/>
</svg>
