<svg width="12" height="12" viewBox="0 0 12 12" fill="none" xmlns="http://www.w3.org/2000/svg">
<path d="M11 10V6.08701C11 5.81478 10.9445 5.5454 10.8368 5.29538C10.729 5.04536 10.5714 4.81997 10.3735 4.63301L6.687 1.14901C6.50133 0.973478 6.25551 0.875671 6 0.875671C5.74449 0.875671 5.49867 0.973478 5.313 1.14901L1.6265 4.63301C1.42861 4.81997 1.27098 5.04536 1.16325 5.29538C1.05552 5.5454 0.999971 5.81478 1 6.08701V10C1 10.2652 1.10536 10.5196 1.29289 10.7071C1.48043 10.8947 1.73478 11 2 11H10C10.2652 11 10.5196 10.8947 10.7071 10.7071C10.8946 10.5196 11 10.2652 11 10Z" stroke="#828282" stroke-linecap="round" stroke-linejoin="round"/>
</svg>
