<svg width="18" height="12" viewBox="0 0 18 12" fill="none" xmlns="http://www.w3.org/2000/svg">
<path d="M12.3674 12H11.2422V7.50546L9.42488 9.62182C9.37208 9.68359 9.30589 9.7333 9.231 9.76743C9.15612 9.80156 9.0744 9.81925 8.99165 9.81925C8.90891 9.81925 8.82719 9.80156 8.7523 9.76743C8.67742 9.7333 8.61123 9.68359 8.55843 9.62182L6.74115 7.50546V12H5.6159V6C5.61595 5.8879 5.65162 5.77854 5.71806 5.6868C5.78451 5.59505 5.87849 5.52539 5.98723 5.48727C6.09604 5.44894 6.21441 5.44408 6.32617 5.47337C6.43794 5.50265 6.53766 5.56465 6.61175 5.65091L8.99165 8.42182L11.3716 5.65091C11.4456 5.56465 11.5454 5.50265 11.6571 5.47337C11.7689 5.44408 11.8873 5.44894 11.9961 5.48727C12.1048 5.52539 12.1988 5.59505 12.2652 5.6868C12.3317 5.77854 12.3674 5.8879 12.3674 6V12ZM2.33016 5.80909L0.642281 4.85455C0.593517 4.82733 0.5397 4.80969 0.483904 4.80263C0.428107 4.79557 0.371424 4.79924 0.317089 4.81342C0.262755 4.82761 0.211833 4.85202 0.167233 4.88528C0.122633 4.91855 0.0852264 4.96 0.0571501 5.00727C0.0290737 5.05455 0.0108771 5.10672 0.0035992 5.16082C-0.00367872 5.21491 0.000104585 5.26986 0.0147331 5.32254C0.0293616 5.37522 0.0545488 5.42458 0.0888567 5.46782C0.123165 5.51106 0.165921 5.54733 0.214685 5.57455L1.90256 6.54545C1.95107 6.57838 2.00611 6.60118 2.06418 6.61241C2.12225 6.62364 2.1821 6.62305 2.23993 6.61068C2.29775 6.59831 2.3523 6.57443 2.40011 6.54056C2.44792 6.50668 2.48795 6.46355 2.51767 6.41389C2.54738 6.36424 2.56614 6.30914 2.57274 6.25208C2.57934 6.19503 2.57365 6.13727 2.55602 6.08247C2.53839 6.02766 2.50921 5.977 2.47033 5.9337C2.43145 5.89039 2.38372 5.85539 2.33016 5.83091V5.80909ZM4.65381 3.55636C4.68064 3.60198 4.71652 3.642 4.75938 3.67411C4.80223 3.70623 4.85122 3.72981 4.90351 3.7435C4.9558 3.75719 5.01037 3.76071 5.06408 3.75387C5.11778 3.74703 5.16956 3.72996 5.21643 3.70364C5.31021 3.64999 5.37896 3.56327 5.40832 3.46162C5.43768 3.35996 5.42537 3.25124 5.37397 3.15818L4.395 1.52182C4.36692 1.47454 4.32952 1.43309 4.28491 1.39983C4.24031 1.36657 4.18939 1.34215 4.13506 1.32797C4.08072 1.31379 4.02404 1.31012 3.96824 1.31717C3.91245 1.32423 3.85863 1.34187 3.80987 1.36909C3.71138 1.42406 3.63946 1.51471 3.60991 1.6211C3.58037 1.72748 3.59563 1.84089 3.65233 1.93636L4.65381 3.55636ZM8.99165 2.72727C9.10506 2.72727 9.21382 2.6836 9.29401 2.60586C9.3742 2.52811 9.41925 2.42267 9.41925 2.31273V0.414546C9.41925 0.304601 9.3742 0.19916 9.29401 0.121418C9.21382 0.0436753 9.10506 0 8.99165 0C8.87825 0 8.76949 0.0436753 8.6893 0.121418C8.60911 0.19916 8.56406 0.304601 8.56406 0.414546V2.31818C8.56554 2.42718 8.61124 2.53122 8.69127 2.60779C8.7713 2.68436 8.87922 2.72728 8.99165 2.72727ZM12.75 3.70364C12.8128 3.7409 12.8846 3.76159 12.9582 3.76364C13.0334 3.76381 13.1073 3.74474 13.1725 3.70835C13.2377 3.67195 13.2919 3.61953 13.3295 3.55636L14.3141 1.92C14.3708 1.82452 14.3861 1.71112 14.3565 1.60473C14.327 1.49835 14.255 1.4077 14.1566 1.35273C14.0581 1.29776 13.9411 1.28296 13.8314 1.31161C13.7216 1.34025 13.6281 1.40998 13.5714 1.50545L12.5925 3.14182C12.5644 3.18865 12.5462 3.24041 12.5389 3.29411C12.5317 3.34781 12.5355 3.40238 12.5501 3.45464C12.5648 3.50691 12.59 3.55583 12.6243 3.59857C12.6586 3.64131 12.7013 3.67703 12.75 3.70364ZM17.9374 5.00727C17.8811 4.91737 17.7917 4.85158 17.6872 4.82322C17.5827 4.79486 17.4711 4.80606 17.3748 4.85455L15.6869 5.80909C15.5862 5.85972 15.5103 5.94707 15.476 6.05192C15.4417 6.15677 15.4518 6.27053 15.5041 6.36818C15.5563 6.46583 15.6464 6.53936 15.7545 6.57261C15.8627 6.60585 15.98 6.59609 16.0807 6.54545L17.7686 5.59636C17.8209 5.56969 17.867 5.53293 17.904 5.48835C17.9411 5.44377 17.9684 5.39232 17.9842 5.33715C18 5.28197 18.004 5.22425 17.996 5.16752C17.9879 5.11079 17.968 5.05626 17.9374 5.00727Z" fill="#828282"/>
</svg>
