<svg width="23" height="31" viewBox="0 0 23 31" fill="none" xmlns="http://www.w3.org/2000/svg">
<path d="M6 30.0833C4.4875 30.0833 3.19271 29.5121 2.11563 28.3698C1.03854 27.2274 0.5 25.8542 0.5 24.25V9.66666C0.5 8.0625 1.03854 6.68923 2.11563 5.54687C3.19271 4.40451 4.4875 3.83333 6 3.83333H7.375V0.916664H10.125V3.83333H12.875V0.916664H15.625V3.83333H17C18.5125 3.83333 19.8073 4.40451 20.8844 5.54687C21.9615 6.68923 22.5 8.0625 22.5 9.66666V24.25C22.5 25.8542 21.9615 27.2274 20.8844 28.3698C19.8073 29.5121 18.5125 30.0833 17 30.0833H6ZM6 27.1667H17C17.7563 27.1667 18.4039 26.8813 18.9429 26.3106C19.481 25.739 19.75 25.0521 19.75 24.25V9.66666C19.75 8.86458 19.481 8.17819 18.9429 7.6075C18.4039 7.03583 17.7563 6.75 17 6.75H6C5.24375 6.75 4.59658 7.03583 4.0585 7.6075C3.5195 8.17819 3.25 8.86458 3.25 9.66666V24.25C3.25 25.0521 3.5195 25.739 4.0585 26.3106C4.59658 26.8813 5.24375 27.1667 6 27.1667ZM6 12.5833H17V9.66666H6V12.5833ZM11.5 24.25C12.4625 24.25 13.276 23.9039 13.9406 23.2117C14.6052 22.5185 14.9375 21.6736 14.9375 20.6771C14.9375 19.875 14.7198 19.1881 14.2844 18.6165C13.849 18.0458 12.9208 16.8854 11.5 15.1354C10.0562 16.8854 9.12263 18.0521 8.69913 18.6354C8.27471 19.2187 8.0625 19.8993 8.0625 20.6771C8.0625 21.6736 8.39479 22.5185 9.05938 23.2117C9.72396 23.9039 10.5375 24.25 11.5 24.25Z" fill="white"/>
</svg>
