<svg width="19" height="22" viewBox="0 0 19 22" fill="none" xmlns="http://www.w3.org/2000/svg">
<path d="M6.28124 1.375C6.55475 1.375 6.81705 1.48365 7.01045 1.67705C7.20385 1.87044 7.31249 2.13275 7.31249 2.40625V11C7.31249 11.1823 7.38493 11.3572 7.51386 11.4861C7.64279 11.6151 7.81766 11.6875 7.99999 11.6875C8.18233 11.6875 8.3572 11.6151 8.48613 11.4861C8.61506 11.3572 8.68749 11.1823 8.68749 11V7.51713L8.80575 7.51162C9.24162 7.49512 9.68162 7.50062 9.92774 7.54875C10.112 7.58587 10.332 7.68075 10.5437 7.799C10.6496 7.85675 10.75 8.00113 10.75 8.23075V11C10.75 11.1823 10.8224 11.3572 10.9514 11.4861C11.0803 11.6151 11.2552 11.6875 11.4375 11.6875C11.6198 11.6875 11.7947 11.6151 11.9236 11.4861C12.0526 11.3572 12.125 11.1823 12.125 11V8.84812C12.1735 8.84301 12.2221 8.83843 12.2707 8.83438C12.7052 8.80138 13.0737 8.82063 13.2442 8.88938C13.4065 8.95263 13.6567 9.174 13.9125 9.48063C14.0239 9.61263 14.1187 9.74187 14.1875 9.83675V11.6875C14.1875 11.8698 14.2599 12.0447 14.3889 12.1736C14.5178 12.3026 14.6927 12.375 14.875 12.375C15.0573 12.375 15.2322 12.3026 15.3611 12.1736C15.4901 12.0447 15.5625 11.8698 15.5625 11.6875V10.3125H16.0327C16.2249 10.3125 16.4149 10.3528 16.5906 10.4307C16.7662 10.5087 16.9236 10.6226 17.0525 10.7651C17.1814 10.9076 17.279 11.0756 17.339 11.2581C17.399 11.4407 17.4201 11.6338 17.4009 11.825L17.0282 15.5581C16.9801 16.0379 16.8316 16.5021 16.5924 16.9207L14.6742 20.2785C14.6141 20.3837 14.5273 20.4712 14.4225 20.532C14.3177 20.5929 14.1987 20.625 14.0775 20.625H5.29812C5.1849 20.6249 5.07345 20.5969 4.97366 20.5434C4.87387 20.4899 4.78884 20.4126 4.72612 20.3184L2.75574 17.3621C2.5728 17.088 2.45822 16.7739 2.42162 16.4464L1.94724 12.177C1.92807 12.0059 1.9738 11.8338 2.07539 11.6948C2.17697 11.5558 2.32702 11.46 2.49587 11.4263L3.87499 11.1512V12.375C3.87499 12.5573 3.94743 12.7322 4.07636 12.8611C4.20529 12.9901 4.38016 13.0625 4.56249 13.0625C4.74483 13.0625 4.9197 12.9901 5.04863 12.8611C5.17756 12.7322 5.24999 12.5573 5.24999 12.375V2.40625C5.24999 2.13275 5.35864 1.87044 5.55204 1.67705C5.74544 1.48365 6.00774 1.375 6.28124 1.375ZM8.68749 6.14075V2.40625C8.68749 1.76807 8.43398 1.15603 7.98272 0.704774C7.53146 0.253515 6.91942 0 6.28124 0C5.64307 0 5.03103 0.253515 4.57977 0.704774C4.12851 1.15603 3.87499 1.76807 3.87499 2.40625V9.74875L2.22499 10.0787C1.71924 10.1801 1.26984 10.4674 0.965417 10.8838C0.660998 11.3002 0.523662 11.8156 0.580494 12.3282L1.05487 16.599C1.11587 17.1449 1.30683 17.6683 1.61174 18.1252L3.58212 21.0815C3.77045 21.364 4.02561 21.5957 4.32496 21.7559C4.62431 21.9161 4.95859 22 5.29812 22H14.0775C14.441 21.9999 14.7981 21.9037 15.1125 21.7211C15.4269 21.5386 15.6874 21.2762 15.8677 20.9605L17.7859 17.6041C18.1212 17.0174 18.3292 16.3667 18.3964 15.6942L18.769 11.9611C18.8072 11.5788 18.7649 11.1928 18.6448 10.8278C18.5247 10.4629 18.3295 10.1271 18.0717 9.84227C17.8139 9.5574 17.4992 9.32971 17.1481 9.17387C16.7969 9.01803 16.4169 8.93751 16.0327 8.9375H15.2339C15.148 8.8211 15.0586 8.70738 14.9657 8.5965C14.7031 8.28162 14.2645 7.8155 13.7557 7.612C13.2552 7.41125 12.5925 7.4305 12.1635 7.4635L11.982 7.48C11.8356 7.10527 11.5634 6.79317 11.212 6.59725C10.8957 6.41481 10.5535 6.2813 10.1972 6.20125C9.77099 6.116 9.18112 6.1215 8.75349 6.138L8.68749 6.14075Z" fill="white"/>
</svg>
