<svg width="31" height="25" viewBox="0 0 31 25" fill="none" xmlns="http://www.w3.org/2000/svg">
<path fill-rule="evenodd" clip-rule="evenodd" d="M26.4687 10.6166V0.541672H28.0937V10.6166C28.0937 12.2139 28.6194 13.7924 29.2727 15.4213C29.7301 16.5624 30.1258 17.9539 30.1258 19.3333C30.125 21.3398 29.2686 22.6689 28.1384 23.4607C27.0529 24.2209 25.7643 24.4583 24.8437 24.4583C23.733 24.4583 23.0018 24.2089 22.3835 23.8903C22.1925 23.7921 21.9959 23.6768 21.8237 23.5768C21.7481 23.5324 21.6774 23.4914 21.6132 23.4555C21.3952 23.3273 21.1668 23.2195 20.9307 23.1335C20.7081 23.0549 20.2263 23.0003 19.5527 22.9892C18.9125 22.9789 18.1959 23.008 17.567 23.0464C16.8788 23.0883 16.2678 23.3454 15.5195 23.6614C15.2912 23.7571 15.049 23.8587 14.7882 23.9621C14.0163 24.2661 12.9902 24.4583 11.4375 24.4583C9.82629 24.4583 9.05685 24.361 8.52791 24.1227C8.34962 24.0386 8.17955 23.9365 8.0201 23.8177C7.97136 23.7831 7.92178 23.7497 7.87141 23.7178C7.63778 23.8859 7.38065 24.0147 7.10929 24.0996C6.44304 24.3183 5.3551 24.4583 3.31247 24.4583C2.61535 24.4583 2.01735 24.2824 1.55097 23.9117C1.08297 23.5384 0.827849 23.0336 0.707599 22.5339C0.476036 21.5815 0.696224 20.5343 0.926974 19.8877C0.985016 19.7249 1.08892 19.5846 1.22481 19.4856C1.3607 19.3865 1.52211 19.3334 1.68747 19.3333H4.6531L5.16254 18.9045C6.1091 18.1085 7.18566 17.5515 8.27685 17.1415C9.68491 16.612 11.4683 15.8005 13.0852 14.7217C14.6647 13.6677 16.0102 12.4069 16.7374 10.9736L17.5353 2.16886L19.1522 2.33115L18.3397 11.2999C18.3304 11.4045 18.3029 11.5065 18.2584 11.6006C17.3582 13.4925 15.6925 15.0053 13.9562 16.1644C12.2069 17.332 10.3048 18.193 8.82366 18.7499C7.84866 19.1172 6.94435 19.593 6.17735 20.2379L5.66791 20.6675C5.37962 20.9099 5.02142 21.0419 4.65229 21.0417H2.29766C2.22616 21.4124 2.20666 21.8036 2.28141 22.1119C2.33341 22.3238 2.41954 22.4596 2.53166 22.5493C2.64704 22.6415 2.87291 22.75 3.31247 22.75C5.33235 22.75 6.20822 22.6048 6.62504 22.4681C6.80866 22.4083 6.89479 22.3511 6.95979 22.3041L6.98579 22.2836C7.05566 22.2273 7.24416 22.0769 7.41804 21.9864C7.61059 21.885 7.83357 21.8681 8.03797 21.9394C8.41985 22.0735 8.65954 22.2153 8.85372 22.3485L8.99022 22.4434C9.07229 22.5014 9.10235 22.5228 9.16735 22.5518C9.34935 22.6338 9.79866 22.75 11.4375 22.75C12.8691 22.75 13.6857 22.5715 14.2178 22.3622C14.3925 22.2939 14.5778 22.2144 14.772 22.1316C15.5568 21.7985 16.492 21.4004 17.4727 21.3406C18.1736 21.2946 18.8757 21.2746 19.5779 21.2808C20.2409 21.2919 20.9559 21.3406 21.4442 21.5123C21.8123 21.6413 22.117 21.8002 22.3843 21.9514L22.6622 22.1119C22.8125 22.1999 22.9441 22.2768 23.0993 22.3571C23.5169 22.5723 24.0044 22.75 24.8437 22.75C25.5482 22.75 26.4931 22.5604 27.2365 22.0393C27.9353 21.5499 28.5 20.7427 28.5 19.3333C28.5 18.2708 28.1888 17.1168 27.7752 16.0849C27.113 14.433 26.4687 12.5812 26.4687 10.6166Z" fill="white"/>
</svg>
