<?xml version="1.0" encoding="iso-8859-1"?>
<!-- Generator: Adobe Illustrator 16.0.0, SVG Export Plug-In . SVG Version: 6.00 Build 0)  -->
<!DOCTYPE svg PUBLIC "-//W3C//DTD SVG 1.1//EN" "http://www.w3.org/Graphics/SVG/1.1/DTD/svg11.dtd">
<svg version="1.1" id="Capa_1" xmlns="http://www.w3.org/2000/svg" xmlns:xlink="http://www.w3.org/1999/xlink" x="0px" y="0px"
	 width="31.369px" height="31.369px" viewBox="0 0 31.369 31.369" style="enable-background:new 0 0 31.369 31.369;"
	 xml:space="preserve">
<g>
	<g>
		<g>
			<path d="M25.139,25.364c0.168-0.461,0.07-0.998-0.297-1.373c-0.574-0.586-1.562-0.522-2.047,0.202
				c-0.29,0.434-0.287,1.021,0.008,1.453c0.357,0.525,0.985,0.697,1.521,0.516l1.67,1.359c0.318,0.261,0.74-0.158,0.484-0.48
				L25.139,25.364z"/>
		</g>
		<g>
			<path d="M29.109,20.385l0.168,0.168c0.295,0.295,0.775,0.295,1.072,0c0.295-0.297,0.295-0.776,0-1.072l-1.051-1.051
				c-0.296-0.297-0.775-0.297-1.072,0s-0.297,0.776,0,1.072l0.168,0.168l-0.334,0.334c-0.938-0.791-2.105-1.318-3.388-1.469v-1.037
				h0.791c0.418,0,0.759-0.339,0.759-0.758s-0.34-0.76-0.759-0.76h-3.097c-0.42,0-0.758,0.341-0.758,0.76s0.338,0.758,0.758,0.758
				h0.789v1.037c-3.193,0.376-5.682,3.098-5.682,6.393c0,3.553,2.889,6.441,6.441,6.441c3.552,0,6.441-2.891,6.441-6.441
				c0-1.61-0.599-3.08-1.578-4.211L29.109,20.385z M28.839,24.928c0,2.715-2.208,4.924-4.924,4.924s-4.925-2.209-4.925-4.924
				c0-2.716,2.209-4.926,4.925-4.926S28.839,22.212,28.839,24.928z"/>
		</g>
		<g>
			<path d="M6.712,7.597c1.109,0,2.009-0.899,2.009-2.009V2.01C8.721,0.9,7.821,0,6.712,0c-1.11,0-2.01,0.899-2.01,2.01v3.578
				C4.703,6.698,5.603,7.597,6.712,7.597z"/>
		</g>
		<g>
			<path d="M21.041,7.597c1.109,0,2.01-0.899,2.01-2.009V2.01c0-1.11-0.9-2.01-2.01-2.01s-2.01,0.899-2.01,2.01v3.578
				C19.031,6.698,19.932,7.597,21.041,7.597z"/>
		</g>
		<g>
			<path d="M10.915,26.153v-6.077h5.922v3c0.601-2.294,2.271-4.174,4.494-5.009h-2.484V12.07h6.099v3.015h0.519
				c0.659,0,1.226,0.392,1.49,0.951V3.799h-2.897v1.789c0,1.662-1.354,3.014-3.015,3.014c-1.662,0-3.015-1.352-3.015-3.014V3.799
				H9.728v1.789c0,1.662-1.353,3.014-3.014,3.014c-1.662,0-3.015-1.352-3.015-3.014V3.799h-2.9v24.364h16.543
				c-0.311-0.625-0.531-1.299-0.651-2.009L10.915,26.153L10.915,26.153z M10.915,12.071h5.922v5.997h-5.922V12.071z M8.905,26.153
				H2.809v-6.077h6.096V26.153z M8.905,18.068H2.809v-5.997h6.096V18.068z"/>
		</g>
	</g>
</g>
<g>
</g>
<g>
</g>
<g>
</g>
<g>
</g>
<g>
</g>
<g>
</g>
<g>
</g>
<g>
</g>
<g>
</g>
<g>
</g>
<g>
</g>
<g>
</g>
<g>
</g>
<g>
</g>
<g>
</g>
</svg>
