<svg width="30" height="33" viewBox="0 0 30 33" fill="none" xmlns="http://www.w3.org/2000/svg">
<path d="M25.625 2.75H4.375C3.87772 2.75 3.40081 2.9673 3.04917 3.35409C2.69754 3.74089 2.5 4.26549 2.5 4.8125V28.1875C2.5 28.7345 2.69754 29.2591 3.04917 29.6459C3.40081 30.0327 3.87772 30.25 4.375 30.25H25.625C26.1223 30.25 26.5992 30.0327 26.9508 29.6459C27.3025 29.2591 27.5 28.7345 27.5 28.1875V4.8125C27.5 4.26549 27.3025 3.74089 26.9508 3.35409C26.5992 2.9673 26.1223 2.75 25.625 2.75V2.75Z" stroke="white" stroke-linejoin="round"/>
<path d="M7.5 13.0996C9.57813 10.3496 12.0781 8.97462 15 8.97462C17.9219 8.97462 20.4219 10.3496 22.5 13.0996" stroke="white" stroke-linecap="round"/>
<path d="M15 21.3125C15.4973 21.3125 15.9742 21.0952 16.3258 20.7084C16.6775 20.3216 16.875 19.797 16.875 19.25C16.875 18.703 16.6775 18.1784 16.3258 17.7916C15.9742 17.4048 15.4973 17.1875 15 17.1875C14.5027 17.1875 14.0258 17.4048 13.6742 17.7916C13.3225 18.1784 13.125 18.703 13.125 19.25C13.125 19.797 13.3225 20.3216 13.6742 20.7084C14.0258 21.0952 14.5027 21.3125 15 21.3125Z" fill="white"/>
<path d="M11.875 14.4375L15.005 19.25" stroke="white" stroke-linecap="round"/>
</svg>
